<?xml version="1.0" encoding="UTF-8"?>
<svg xmlns="http://www.w3.org/2000/svg" xmlns:xlink="http://www.w3.org/1999/xlink" width="px" height="24px" viewBox="0 0 27 24" version="1.1">
<g id="surface1">
<path style=" stroke:none;fill-rule:evenodd;fill-opacity:1;" d="M 13.617188 5.652344 C 13.539062 6.039062 13.5 6.4375 13.5 6.847656 C 13.5 9.667969 15.425781 12.027344 18 12.625 C 18.410156 12.71875 18.835938 12.769531 19.273438 12.769531 C 20.492188 12.769531 21.617188 12.382812 22.546875 11.726562 L 24.308594 13.53125 C 24.71875 13.953125 25.382812 13.953125 25.792969 13.53125 C 26.203125 13.109375 26.203125 12.429688 25.792969 12.007812 L 24.035156 10.203125 C 24.675781 9.25 25.050781 8.09375 25.050781 6.847656 C 25.050781 3.574219 22.464844 0.921875 19.273438 0.921875 C 16.484375 0.921875 14.15625 2.953125 13.617188 5.652344 Z M 15.601562 6.847656 C 15.601562 4.765625 17.246094 3.078125 19.273438 3.078125 C 21.304688 3.078125 22.949219 4.765625 22.949219 6.847656 C 22.949219 8.929688 21.304688 10.617188 19.273438 10.617188 C 17.246094 10.617188 15.601562 8.929688 15.601562 6.847656 Z M 15.601562 6.847656 "/>
<path style=" stroke:none;fill-rule:evenodd;fill-opacity:1;" d="M 12.601562 6.847656 C 12.601562 6.398438 12.640625 5.960938 12.722656 5.539062 L 1.628906 5.539062 C 0.730469 5.539062 0 6.285156 0 7.207031 L 0 22.328125 C 0 23.253906 0.730469 24 1.628906 24 L 16.371094 24 C 17.269531 24 18 23.253906 18 22.328125 L 18 13.566406 C 14.921875 12.957031 12.601562 10.179688 12.601562 6.847656 Z M 5.570312 21.480469 C 5.570312 21.746094 5.359375 21.964844 5.097656 21.964844 L 3.078125 21.964844 C 2.816406 21.964844 2.605469 21.746094 2.605469 21.480469 L 2.605469 12.808594 C 2.605469 12.539062 2.816406 12.320312 3.078125 12.320312 L 5.097656 12.320312 C 5.359375 12.320312 5.570312 12.539062 5.570312 12.808594 Z M 4.085938 11.503906 C 3.03125 11.503906 2.171875 10.625 2.171875 9.539062 C 2.171875 8.453125 3.03125 7.574219 4.085938 7.574219 C 5.144531 7.574219 6.003906 8.453125 6.003906 9.539062 C 6.003906 10.625 5.144531 11.503906 4.085938 11.503906 Z M 16.109375 21.519531 C 16.109375 21.765625 15.914062 21.964844 15.675781 21.964844 L 13.511719 21.964844 C 13.269531 21.964844 13.074219 21.765625 13.074219 21.519531 L 13.074219 17.449219 C 13.074219 17.40625 13.074219 17.355469 13.078125 17.292969 C 13.089844 16.554688 13.121094 14.792969 11.527344 14.792969 C 10.195312 14.792969 9.925781 16.195312 9.871094 16.828125 L 9.871094 21.519531 C 9.871094 21.765625 9.675781 21.964844 9.433594 21.964844 L 7.339844 21.964844 C 7.101562 21.964844 6.90625 21.765625 6.90625 21.519531 L 6.90625 12.769531 C 6.90625 12.519531 7.101562 12.320312 7.339844 12.320312 L 9.433594 12.320312 C 9.675781 12.320312 9.871094 12.519531 9.871094 12.769531 L 9.871094 13.523438 C 10.363281 12.761719 11.101562 12.175781 12.664062 12.175781 C 16.109375 12.175781 16.109375 15.460938 16.109375 17.289062 Z M 16.109375 21.519531 "/>
</g>
</svg>
