<svg width="14" height="15" viewBox="0 0 14 15" xmlns="http://www.w3.org/2000/svg">
<g clip-path="url(#clip0_10004_389067)">
<path fill-rule="evenodd" clip-rule="evenodd" d="M8.30717 0.635132H5.69325C5.22367 0.635132 4.83575 0.635132 4.52075 0.663365C4.19234 0.692882 3.89075 0.756407 3.60784 0.914899C3.16881 1.16097 2.81187 1.5536 2.58817 2.03653C2.44409 2.34774 2.38634 2.67948 2.3595 3.0401C2.33325 3.38788 2.33325 3.81395 2.33325 4.32985V9.77311C2.33325 10.2896 2.33325 10.7164 2.35892 11.0629C2.38575 11.4241 2.4435 11.7559 2.58759 12.0671C2.81129 12.55 3.16823 12.9426 3.60725 13.1887C3.89017 13.3472 4.19175 13.4107 4.51959 13.4402C4.83575 13.4685 5.22309 13.4685 5.69209 13.4685H8.30717C8.77675 13.4685 9.16467 13.4685 9.47967 13.4402C9.80808 13.4107 10.1097 13.3472 10.3926 13.1887C10.8316 12.9426 11.1885 12.55 11.4123 12.0671C11.5563 11.7559 11.6141 11.4241 11.6409 11.0635C11.6666 10.7164 11.6666 10.2896 11.6666 9.77375V4.32985C11.6666 3.81331 11.6666 3.3866 11.6409 3.0401C11.6141 2.67884 11.5563 2.3471 11.4123 2.03589C11.1885 1.55296 10.8316 1.16033 10.3926 0.914257C10.1097 0.755765 9.80808 0.69224 9.48025 0.662723C9.16408 0.635132 8.77675 0.635132 8.30775 0.635132H8.30717ZM4.13692 2.05835C4.22792 2.00702 4.35858 1.96531 4.61467 1.94285C4.78617 1.92745 4.98975 1.92167 5.24992 1.91975V2.56013C5.24992 2.73031 5.31138 2.89352 5.42077 3.01386C5.53017 3.13419 5.67854 3.2018 5.83325 3.2018H8.16658C8.32129 3.2018 8.46967 3.13419 8.57906 3.01386C8.68846 2.89352 8.74992 2.73031 8.74992 2.56013V1.91975C9.0095 1.92167 9.21367 1.92745 9.38517 1.94285C9.64067 1.96531 9.77192 2.00702 9.86292 2.05835C10.0824 2.18138 10.2609 2.3777 10.3728 2.61917C10.4194 2.71927 10.4573 2.863 10.4778 3.14469C10.4999 3.43344 10.4999 3.80689 10.4999 4.3568V9.7468C10.4999 10.2967 10.4999 10.6702 10.4778 10.9589C10.4573 11.24 10.4194 11.3843 10.3728 11.4844C10.2609 11.7259 10.0824 11.9222 9.86292 12.0452C9.77192 12.0966 9.64125 12.1383 9.38517 12.1607C9.12267 12.1845 8.78317 12.1851 8.28325 12.1851H5.71658C5.21667 12.1851 4.87717 12.1851 4.61467 12.1607C4.35917 12.1383 4.22792 12.0966 4.13692 12.0452C3.91741 11.9222 3.73894 11.7259 3.62709 11.4844C3.58042 11.3843 3.5425 11.2406 3.52209 10.9589C3.49992 10.6702 3.49992 10.2967 3.49992 9.7468V4.3568C3.49992 3.80689 3.49992 3.43344 3.52209 3.14469C3.5425 2.86364 3.58042 2.71927 3.62709 2.61917C3.73894 2.3777 3.91741 2.18138 4.13692 2.05835Z"/>
</g>
<defs>
<clipPath id="clip0_10004_389067">
<rect width="14" height="14" transform="translate(0 0.0517578)"/>
</clipPath>
</defs>
</svg>
